name C:\Users\u0101727\Documents\MyRepositories\upper-imu-dc\Results\main_tracking\Case_23\kinematics.mot
datacolumns 10
datarows 56
range 2.38000000 2.93000000
endheader 
time	clav_prot	clav_elev	scapula_abduction	scapula_elevation	scapula_upward_rot	scapula_winging	plane_elv	shoulder_elv	axial_rot	
          2.38000000	        -21.03438368	         -2.96354348	         -6.84887143	         -4.30016149	         18.45213616	          3.49511058	        -16.61694794	         14.34207879	         38.78924296	
          2.39000000	        -20.35343728	         -3.05039862	         -5.94553813	         -4.20912858	         17.96231383	          3.58046697	        -16.54225953	         14.75244532	         38.92996940	
          2.40000000	        -19.55046017	         -3.08532900	         -4.90096650	         -4.04695163	         17.37032863	          3.64601324	        -16.28811397	         15.22253859	         38.88648675	
          2.41000000	        -19.03827744	         -3.12922940	         -4.29579594	         -3.93168711	         16.88010298	          3.71294474	        -15.98105178	         15.60372808	         38.71701336	
          2.42000000	        -18.90118831	         -3.22881978	         -4.20265630	         -3.93038520	         16.60089384	          3.79335759	        -15.69346530	         15.82248369	         38.47708304	
          2.43000000	        -19.15689648	         -3.40012764	         -4.62243506	         -4.06826662	         16.57890795	          3.88814042	        -15.48732124	         15.85113751	         38.21812691	
          2.44000000	        -19.78106087	         -3.62539484	         -5.52254205	         -4.32815583	         16.80227448	          3.98542814	        -15.42482371	         15.70092230	         37.98519314	
          2.45000000	        -20.68073013	         -3.84620997	         -6.80541769	         -4.63873024	         17.18108027	          4.06260029	        -15.55416676	         15.43737508	         37.81655779	
          2.46000000	        -21.22957019	         -4.03976479	         -7.49093748	         -4.90416019	         17.53941789	          4.08808876	        -15.82845613	         15.18146339	         37.74470979	
          2.47000000	        -21.66862871	         -4.15247872	         -8.13990596	         -5.04864068	         17.67853899	          4.12604044	        -16.04594963	         15.07416113	         37.77437166	
          2.48000000	        -21.13304523	         -4.21283707	         -7.34128653	         -5.00613346	         17.44182113	          4.16286849	        -16.07026902	         15.22000952	         37.89816803	
          2.49000000	        -20.21764065	         -4.19837506	         -6.08320342	         -4.81188057	         16.90333365	          4.19854080	        -15.97154957	         15.57455570	         38.08573242	
          2.50000000	        -19.19896301	         -4.13142527	         -4.70979050	         -4.54788638	         16.26699741	          4.20198058	        -15.87185297	         15.98138362	         38.29700342	
          2.51000000	        -18.49379955	         -4.05130478	         -3.82378905	         -4.31362377	         15.72439510	          4.20211495	        -15.83517963	         16.29737525	         38.48473766	
          2.52000000	        -18.16849572	         -3.99866440	         -3.47975877	         -4.16702228	         15.37005554	          4.21915062	        -15.86460573	         16.45842708	         38.61592074	
          2.53000000	        -18.25413980	         -3.99378485	         -3.70590153	         -4.13619303	         15.24608185	          4.26411605	        -15.95329581	         16.43945204	         38.67905270	
          2.54000000	        -18.76775189	         -4.03888289	         -4.52737954	         -4.22629903	         15.36007695	          4.33489716	        -16.10039953	         16.23706061	         38.68443932	
          2.55000000	        -19.71218365	         -4.11566026	         -5.96879422	         -4.41638241	         15.68035356	          4.41493036	        -16.30851650	         15.87279649	         38.65974852	
          2.56000000	        -21.04723673	         -4.18185865	         -8.02897803	         -4.64575570	         16.09710113	          4.47845829	        -16.55462885	         15.42790709	         38.64613319	
          2.57000000	        -21.74017318	         -4.25596808	         -9.05781180	         -4.80645449	         16.35561584	          4.49343765	        -16.69740468	         15.09952200	         38.68066844	
          2.58000000	        -21.41672074	         -4.35546938	         -8.47811100	         -4.86061883	         16.34427763	          4.50634560	        -16.66103840	         14.97116540	         38.78282478	
          2.59000000	        -21.72301290	         -4.37245936	         -9.03914449	         -4.87790067	         16.29048908	          4.54807085	        -16.72398493	         14.88347864	         38.97414736	
          2.60000000	        -21.53167117	         -4.40624141	         -8.75201233	         -4.87071955	         16.20289130	          4.56750891	        -16.87543907	         14.83553796	         39.24856446	
          2.61000000	        -21.31475447	         -4.42009579	         -8.47579454	         -4.82615946	         16.03207459	          4.59752213	        -17.02058769	         14.87276597	         39.58863694	
          2.62000000	        -21.16053764	         -4.42990629	         -8.28101976	         -4.79362916	         15.90747902	          4.61876559	        -17.22339015	         14.88718998	         39.98653697	
          2.63000000	        -20.93693316	         -4.45214181	         -7.95926826	         -4.76778533	         15.78764347	          4.63589564	        -17.43311368	         14.92423915	         40.41505870	
          2.64000000	        -20.79601762	         -4.47254782	         -7.74424690	         -4.76074034	         15.72946349	          4.64374164	        -17.66875682	         14.92948377	         40.86130315	
          2.65000000	        -20.90361473	         -4.48288239	         -7.92128814	         -4.77795510	         15.74237549	          4.65439055	        -17.95632345	         14.90401849	         41.31106039	
          2.66000000	        -21.08506817	         -4.49686691	         -8.21490456	         -4.80673133	         15.77341246	          4.66810808	        -18.21934393	         14.88274871	         41.75357784	
          2.67000000	        -21.05951378	         -4.52662158	         -8.16170025	         -4.82858264	         15.77594110	          4.67531881	        -18.38414258	         14.88693523	         42.17681463	
          2.68000000	        -21.23107953	         -4.53725955	         -8.45736104	         -4.84659436	         15.77629811	          4.69385400	        -18.49268416	         14.89540360	         42.56720233	
          2.69000000	        -21.26441751	         -4.56084220	         -8.49214681	         -4.87369718	         15.80508339	          4.69761747	        -18.60578586	         14.88516428	         42.91236542	
          2.70000000	        -21.57441401	         -4.55838666	         -8.99042775	         -4.90663756	         15.87267140	          4.70457699	        -18.74892666	         14.84583691	         43.19755544	
          2.71000000	        -21.66873948	         -4.55359877	         -9.13335152	         -4.91754114	         15.90895267	          4.70083349	        -18.84738648	         14.82206683	         43.41238495	
          2.72000000	        -21.38484060	         -4.55119147	         -8.68845166	         -4.87961773	         15.83041916	          4.69791206	        -18.82735536	         14.87872629	         43.54038373	
          2.73000000	        -21.08238222	         -4.53382079	         -8.23009176	         -4.82282533	         15.72592921	          4.69220907	        -18.76893446	         14.95189790	         43.56954040	
          2.74000000	        -21.11502559	         -4.49553072	         -8.33196154	         -4.78067007	         15.66687665	          4.69672556	        -18.74168052	         14.99929453	         43.48439815	
          2.75000000	        -21.26269297	         -4.46710361	         -8.58682900	         -4.77116114	         15.68159605	          4.69610260	        -18.77614224	         15.00617125	         43.28347252	
          2.76000000	        -21.52697567	         -4.45153825	         -9.00138400	         -4.79469600	         15.76187515	          4.69187057	        -18.85353224	         14.97364039	         42.98081427	
          2.77000000	        -21.68573781	         -4.45394671	         -9.23975356	         -4.82096241	         15.82255575	          4.68920664	        -18.87625855	         14.95248425	         42.60611561	
          2.78000000	        -21.61797991	         -4.47524607	         -9.12223341	         -4.83103293	         15.81368525	          4.69383609	        -18.82211219	         14.97587810	         42.19996817	
          2.79000000	        -21.68080571	         -4.49781039	         -9.21981123	         -4.85436237	         15.82359504	          4.70360430	        -18.77368842	         14.96694804	         41.81514252	
          2.80000000	        -21.59135627	         -4.53505160	         -9.08441575	         -4.86555591	         15.77574343	          4.72176298	        -18.62315540	         14.97411126	         41.49105152	
          2.81000000	        -21.22389543	         -4.58967622	         -8.53566620	         -4.84326385	         15.60554913	          4.75342797	        -18.30328203	         15.04635560	         41.25355453	
          2.82000000	        -21.09064147	         -4.62813717	         -8.37285192	         -4.83239244	         15.47615252	          4.78698219	        -18.01386422	         15.06753190	         41.11950004	
          2.83000000	        -21.16915294	         -4.65655875	         -8.52539474	         -4.84903533	         15.43832521	          4.81299770	        -17.82071019	         15.00863194	         41.08011919	
          2.84000000	        -21.10056984	         -4.68943433	         -8.43065140	         -4.85663072	         15.38455149	          4.83153188	        -17.63819162	         14.96731235	         41.11220824	
          2.85000000	        -20.95521938	         -4.72619195	         -8.21121042	         -4.85869896	         15.31449160	          4.84816517	        -17.43402686	         14.94603446	         41.18883268	
          2.86000000	        -20.88601269	         -4.76832087	         -8.10132947	         -4.87827453	         15.28028018	          4.86453246	        -17.25340371	         14.90995673	         41.27933963	
          2.87000000	        -21.04271562	         -4.79275062	         -8.34544823	         -4.91536262	         15.31792589	          4.87837674	        -17.15211658	         14.82596264	         41.36196082	
          2.88000000	        -21.15278028	         -4.80980086	         -8.49155013	         -4.95193144	         15.38633154	          4.87731692	        -17.13117211	         14.72358203	         41.42744945	
          2.89000000	        -21.25366276	         -4.81729870	         -8.63957326	         -4.97411756	         15.42868383	          4.87823657	        -17.11641149	         14.63986073	         41.47070509	
          2.90000000	        -21.15840969	         -4.80488160	         -8.50153566	         -4.94890722	         15.38794915	          4.87570418	        -17.06684525	         14.61045385	         41.49998999	
          2.91000000	        -20.63463896	         -4.78310694	         -7.74613311	         -4.83917191	         15.13737710	          4.87976331	        -16.91983544	         14.74552065	         41.51380019	
          2.92000000	        -19.93808785	         -4.73696273	         -6.76141005	         -4.67219084	         14.77212741	          4.87481710	        -16.72739086	         14.96448100	         41.51581820	
          2.93000000	        -19.41811003	         -4.67574360	         -6.06422093	         -4.51241855	         14.44189691	          4.86749542	        -16.58220260	         15.14840956	         41.50633295	
